<svg width="164" height="147" viewBox="0 0 164 147" fill="none" xmlns="http://www.w3.org/2000/svg">
<path d="M103.469 10C102.235 10 83.0925 13.0816 53.5097 17.7507C42.4573 19.4951 39.3492 19.3382 38.6856 32.8973C38.022 46.4564 39.8727 73.5747 42.3683 93.708C44.8639 113.841 47.9483 126.168 51.1262 137M10 101.515C10 100.282 10 99.0494 32.8251 96.2573C55.6501 93.4651 101.3 89.1509 126.359 86.6202C151.418 84.0896 154.503 83.4733 153.942 82.8383M39.91 137C49.1634 133.918 58.4168 130.837 69.9696 128.017C81.5223 125.197 95.094 122.731 109.077 120.191" stroke="black" stroke-width="8" stroke-linecap="round"/>
</svg>
