<svg width="49" height="70" viewBox="0 0 49 70" fill="none" xmlns="http://www.w3.org/2000/svg">
<path d="M20.8059 2.00024C20.3626 5.08024 19.4694 12.6069 17.5753 26.1169C14.5731 42.7069 12.3029 55.7402 11.6313 62.1769C11.4029 64.8736 11.4029 66.4136 11.4029 68.0002M35.5821 8.00024C35.5821 8.88024 35.5821 9.76024 35.1388 15.2736C34.6955 20.7869 33.8089 30.9069 32.4657 39.8602C31.1224 48.8136 29.3493 56.2936 26.1791 64.0002M2 24.6669C13.3776 25.3269 26.797 26.6669 34.5511 26.0036C36.0187 25.7802 37.1269 25.5602 39.1385 25.4469C41.15 25.3336 44.0314 25.3336 47 25.3336" stroke="#FFC3EA" stroke-width="4" stroke-linecap="round"/>
</svg>
