<svg width="73" height="57" viewBox="0 0 73 57" fill="none" xmlns="http://www.w3.org/2000/svg">
<path d="M43.9347 10.6265C33.7905 17.4344 16.9102 31.5945 12.5504 36.9328C10.893 38.4821 8.66982 40.4728 6.12379 42.5729C4.8957 43.3592 3.79741 43.5782 2.00024 43.8038M8.65634 30.5329C11.9645 32.9482 17.2962 38.2565 23.8293 43.0108C28.408 46.3429 32.5923 51.0763 36.819 54.3011C37.8071 55.055 39.2485 55.2964 40.2569 54.5367C45.6775 50.4527 47.236 43.1668 57.4268 36.309C62.0349 33.208 66.3262 31.8666 68.0002 30.6523C62.1461 28.5488 43.6417 14.0769 32.8552 5.21855C31.9599 4.4422 31.3009 3.56632 28.6251 2.00037" stroke="#FFC3EA" stroke-width="4" stroke-linecap="round"/>
</svg>
