<svg width="57" height="85" viewBox="0 0 57 85" fill="none" xmlns="http://www.w3.org/2000/svg">
<path d="M19.2679 16.7957C18.3125 17.73 17.6524 20.3438 17.0878 22.3661C16.9092 23.0058 17.0314 23.7897 17.1956 24.4C17.8992 27.0142 22.2895 27.428 24.0728 27.5961L24.0978 27.5984C24.8775 27.6719 25.4268 27.2207 25.8184 26.7258C26.626 25.7051 26.9831 24.3604 27.4809 22.828C28.2256 20.5353 27.1026 18.4221 26.054 17.3796C25.1149 16.446 23.3495 15.9973 21.1395 16.1606C20.3931 16.2967 19.4593 16.1402 19.2679 16.7957Z" stroke="white" stroke-width="3" stroke-linecap="round"/>
<path d="M36.1086 19.5359C34.398 19.5359 33.5667 23.8114 33.5634 26.6733C33.5619 27.9258 34.5556 28.9876 35.6025 29.8668C36.7072 30.7945 38.5343 30.4227 39.86 30.205C42.1109 29.8353 41.7498 25.3818 41.476 22.5792C41.2023 21.5186 40.6547 21.192 40.0442 20.8604C39.4336 20.5289 37.494 19.5359 36.1086 19.5359Z" stroke="white" stroke-width="3" stroke-linecap="round"/>
<path fill-rule="evenodd" clip-rule="evenodd" d="M7.90257 36.6909C7.68356 37.5651 7.01989 39.759 6.52213 42.0155C6.23835 43.302 5.91156 44.9286 6.13057 46.9031C6.35987 48.9703 7.67693 50.3225 8.66911 50.9823C9.16644 51.3131 9.8803 51.2067 10.383 50.9889C12.4303 50.1023 12.9863 47.1488 14.093 45.0523C15.1482 43.0533 14.8711 49.6561 15.8069 51.8582C16.0489 52.4277 16.3046 52.9552 16.6912 53.3445C18.2628 54.927 20.3645 54.5121 21.4746 54.2929L21.4995 54.288C24.0338 53.7879 24.2687 49.247 24.5491 46.5418C24.6119 45.9356 24.7134 45.2816 24.934 45.2173C26.7386 44.6912 26.8106 49.4318 28.1943 52.8446C28.6794 54.0411 30.1289 54.2847 31.5077 54.4496C32.9864 54.6265 34.5523 54.288 36.0422 53.5226C39.3995 51.798 38.5409 48.353 38.7616 47.2561C38.8728 46.7035 38.9823 46.1591 39.2577 46.8041C41.276 51.5304 41.4146 53.2917 42.3504 53.9515C42.8788 54.3241 43.8337 54.1758 44.504 54.0125C45.6821 53.7255 46.3922 52.7506 47.1089 51.5465C48.1493 49.7987 48.3865 46.4989 48.277 43.0382C48.1725 39.7353 46.067 38.5647 45.4049 37.6872C45.0715 37.2451 44.7429 36.8096 45.614 36.5853C48.4797 35.8473 51.4759 35.9255 52.8016 34.9935C54.9974 33.4498 54.9104 29.8883 55.3534 27.4618C55.967 24.1009 54.5918 18.1305 52.4316 14.2145C51.0694 11.7453 48.1808 9.86967 44.8591 7.50261C41.813 5.33193 37.2368 3.15942 34.1839 2.60188C29.6265 1.76956 24.9523 1.5033 16.9484 1.5C13.16 1.49844 10.7895 3.03406 7.64042 5.88607C3.26433 9.84931 2.26801 13.4722 1.6541 17.21C1.2107 19.9098 1.81671 22.1685 2.31281 23.4848C3.28336 26.06 5.57309 27.3348 7.56244 28.1117C8.60974 28.5207 9.77745 28.7699 10.7165 29.5369C11.1734 29.91 11.3271 30.5217 11.2757 31.0198C10.8957 31.9535 10.3382 32.9465 9.84215 33.989C9.56507 34.4871 8.57289 35.5824 7.90257 36.6909ZM33.5634 26.6733C33.5667 23.8114 34.398 19.5359 36.1086 19.5359C37.494 19.5359 39.4336 20.5289 40.0442 20.8604C40.6547 21.192 41.2023 21.5186 41.476 22.5792C41.7498 25.3818 42.1109 29.8353 39.86 30.205C38.5343 30.4227 36.7072 30.7945 35.6025 29.8668C34.5556 28.9876 33.5619 27.9258 33.5634 26.6733ZM17.0878 22.3661C17.6524 20.3438 18.3125 17.73 19.2679 16.7957C19.4593 16.1402 20.3931 16.2967 21.1395 16.1606C23.3495 15.9973 25.1149 16.446 26.054 17.3796C27.1026 18.4221 28.2256 20.5353 27.4809 22.828C26.9831 24.3604 26.626 25.7051 25.8184 26.7258C25.4268 27.2207 24.8775 27.6719 24.0978 27.5984L24.0728 27.5961C22.2895 27.428 17.8992 27.0142 17.1956 24.4C17.0314 23.7897 16.9092 23.0058 17.0878 22.3661Z" stroke="white" stroke-width="3" stroke-linecap="round"/>
<path d="M19.185 62.0935C17.5691 62.3088 14.3335 58.6889 11.7286 57.5887C11.0346 57.2955 10.1325 57.2571 9.51697 57.4188C8.43514 57.7029 8.01541 59.0089 7.68356 60.4869C7.19207 62.6759 7.89925 64.6173 8.61602 65.6053C9.96899 67.4704 12.316 68.4673 13.9818 69.7852C15.6267 71.0866 13.3248 74.5045 13.3762 78.0262C13.3968 79.4352 15.7405 80.997 19.3227 82.6465C23.4989 84.5696 27.2519 82.7719 28.6871 81.8399C31.9543 79.7183 30.2484 74.0855 30.5188 73.2608C31.0511 71.6375 34.0014 72.5449 34.9953 71.6673C36.9002 69.9853 37.5421 66.7254 37.494 63.4247C37.4518 60.5263 31.9109 61.9846 30.8623 61.983C28.7585 61.9797 28.3669 64.6173 27.9819 65.2787C27.8319 65.5365 27.2685 65.0692 27.0429 64.5744C26.557 63.509 26.4887 62.209 25.7719 61.2209C25.1093 60.3075 23.9468 60.0052 22.8435 59.9491C22.2877 60.0019 21.7401 60.2197 21.2938 60.5496C20.8475 60.8795 20.0146 61.983 19.185 62.0935Z" stroke="white" stroke-width="3" stroke-linecap="round"/>
</svg>
